<svg width="23" height="23" viewBox="0 0 23 23" fill="none" xmlns="http://www.w3.org/2000/svg">
<path fill-rule="evenodd" clip-rule="evenodd" d="M19.3734 20.7H3.62646C2.92611 20.7 2.38907 20.08 2.48797 19.3877L3.80241 10.1877C3.88291 9.62077 4.36822 9.2 4.94092 9.2H5.74937V11.5C5.74937 12.1348 6.26457 12.65 6.89937 12.65C7.53532 12.65 8.04937 12.1348 8.04937 11.5V9.2H14.9494V11.5C14.9494 12.1348 15.4646 12.65 16.0994 12.65C16.7353 12.65 17.2494 12.1348 17.2494 11.5V9.2H18.059C18.6317 9.2 19.117 9.62077 19.1975 10.1877L20.5119 19.3877C20.6108 20.08 20.0738 20.7 19.3734 20.7ZM8.04937 5.75C8.04937 3.8479 9.59727 2.3 11.4994 2.3C13.4026 2.3 14.9494 3.45 14.9494 5.75V6.9H8.04937V5.75ZM22.9764 20.3746L21.333 8.8746C21.172 7.74185 20.2014 6.9 19.056 6.9H17.2494V5.75C17.2494 2.3 14.6699 0 11.4994 0C8.32997 0 5.74937 2.57945 5.74937 5.75V6.9H4.29462C3.15037 6.9 1.82786 7.74185 1.66571 8.8746L0.0235153 20.3746C-0.174285 21.7603 0.90096 23 2.30051 23H20.6994C22.0989 23 23.1742 21.7603 22.9764 20.3746Z" fill="#012840"/>
</svg>
